<?xml version="1.0" standalone="no"?><!DOCTYPE svg PUBLIC "-//W3C//DTD SVG 1.1//EN" "http://www.w3.org/Graphics/SVG/1.1/DTD/svg11.dtd"><svg t="1662370382281" class="icon" viewBox="0 0 1024 1024" version="1.1" xmlns="http://www.w3.org/2000/svg" p-id="7949" width="64" height="64" xmlns:xlink="http://www.w3.org/1999/xlink"><path d="M832 192h128v768H64V192h128V64h64v128h512V64h64v128z m0 64H128v640h768V256h-64z m-512 384V448H128V384h192V256h64v128h256V256h64v128h192v64H384v448H320v-192H128v-64h192z m304 128c-37.312-43.52-80-81.728-112-92.608l74.688-43.52 32 65.28 10.624-21.76c16-38.144 64-125.248 133.376-163.392v21.76c-5.376 27.264-5.376 49.024 5.312 76.288-37.312 10.88-117.312 108.928-144 157.952z" p-id="7950"></path></svg>