<?xml version="1.0" standalone="no"?><!DOCTYPE svg PUBLIC "-//W3C//DTD SVG 1.1//EN" "http://www.w3.org/Graphics/SVG/1.1/DTD/svg11.dtd"><svg t="1662369969876" class="icon" viewBox="0 0 1024 1024" version="1.1" xmlns="http://www.w3.org/2000/svg" p-id="833" width="64" height="64" xmlns:xlink="http://www.w3.org/1999/xlink"><path d="M146.563072 321.32096l60.551168 0L207.11424 134.10304c0-15.93344 6.367232-30.273536 17.524736-41.43104l0 0c10.36288-10.36288 24.702976-16.728064 40.636416-16.728064l479.627264 0c15.126528 0 30.275584 6.367232 40.624128 16.728064l0 0c10.350592 11.157504 16.744448 25.499648 16.744448 41.43104l0 187.21792 61.345792 0c21.487616 0 41.412608 8.769536 56.537088 23.11168 0 0.796672 0.79872 0.796672 0.79872 1.591296 14.35648 14.340096 22.315008 34.254848 22.315008 55.773184l0 252.542976c0 21.520384-8.7552 42.244096-23.11168 56.567808-15.126528 14.358528-35.049472 23.113728-56.537088 23.113728l-61.345792 0 0 153.759744c0 15.149056-6.393856 30.271488-16.744448 40.648704l0 0c-11.143168 10.348544-25.4976 16.715776-41.418752 16.715776L265.273344 945.145856c-15.93344 0-30.273536-6.367232-40.636416-16.715776l-0.794624 0c-10.36288-10.375168-16.728064-25.4976-16.728064-40.648704l0-153.759744L146.563072 734.021632c-22.315008 0-42.227712-8.7552-56.569856-23.113728-0.794624-0.792576-0.794624-0.792576-1.591296-1.5872-13.545472-14.329856-22.300672-34.258944-22.300672-54.980608L66.101248 401.79712c0-22.315008 8.7552-42.227712 23.891968-57.36448C104.33536 330.090496 124.248064 321.32096 146.563072 321.32096L146.563072 321.32096zM249.341952 588.220416l0 125.079552c0 0.796672 0 1.589248 0 2.38592l0 172.095488c0 3.979264 1.591296 7.960576 4.775936 10.375168l0 0.794624c2.387968 2.38592 6.381568 3.979264 11.157504 3.979264l478.834688 0c4.775936 0 8.7552-1.593344 11.143168-3.979264l0-0.794624c3.18464-2.41664 4.775936-6.395904 4.775936-10.375168L760.029184 589.811712c0-3.979264-1.591296-7.960576-4.775936-11.143168l0 0c-2.387968-2.387968-6.367232-3.977216-11.143168-3.977216L265.273344 574.691328c-4.775936 0-8.769536 1.589248-11.157504 3.977216l0 0C251.727872 581.056512 250.136576 584.239104 249.341952 588.220416L249.341952 588.220416zM207.11424 691.808256l0-101.996544c0-0.796672 0-2.387968 0-3.979264l0-2.387968c0-15.945728 6.367232-30.273536 17.524736-40.624128l0 0c10.36288-10.371072 24.702976-16.7424 40.636416-16.7424l479.627264 0c15.919104 0 30.275584 6.36928 40.624128 16.7424l0 0c10.350592 10.350592 16.744448 24.6784 16.744448 40.624128l0 108.363776 61.345792 0c10.348544 0 19.89632-4.012032 26.263552-11.17184 7.192576-6.367232 11.17184-15.919104 11.17184-26.29632L901.052416 401.79712c0-10.36288-3.979264-19.92704-10.37312-26.29632l-0.79872-0.794624c-6.367232-7.17824-15.915008-11.157504-26.263552-11.157504L146.563072 363.548672c-10.360832 0-19.912704 3.979264-27.088896 11.157504-7.165952 6.367232-11.157504 15.93344-11.157504 27.090944l0 252.542976c0 9.580544 3.9936 19.132416 10.360832 25.499648l0.796672 0.796672c7.176192 7.159808 16.728064 11.17184 27.088896 11.17184L207.11424 691.808256zM744.902656 118.1696 265.273344 118.1696c-4.775936 0-7.972864 1.591296-11.157504 4.775936l0 0 0 0c-3.18464 2.387968-4.775936 6.367232-4.775936 11.157504l0 187.21792 510.687232 0L760.027136 134.10304c0-4.790272-1.591296-8.769536-4.775936-11.157504l0.796672 0-0.796672 0C752.863232 119.762944 748.883968 118.1696 744.902656 118.1696L744.902656 118.1696z" p-id="834"></path></svg>