<?xml version="1.0" standalone="no"?><!DOCTYPE svg PUBLIC "-//W3C//DTD SVG 1.1//EN" "http://www.w3.org/Graphics/SVG/1.1/DTD/svg11.dtd"><svg t="1662369509697" class="icon" viewBox="0 0 1024 1024" version="1.1" xmlns="http://www.w3.org/2000/svg" p-id="1357" width="64" height="64" xmlns:xlink="http://www.w3.org/1999/xlink"><path d="M753.6128 495.00672c-18.37056 0-30.23872-10.92096-30.23872-27.82208-0.29184-68.57728-60.35456-124.46208-133.89312-124.60032-18.4064 0-30.29504-10.96704-30.29504-27.93472 0-16.9728 11.91424-27.93984 30.35648-27.93984 106.9056 0.2048 194.14016 81.14688 194.44736 180.43392-0.00512 16.91648-11.92448 27.86304-30.37696 27.86304z" p-id="1358"></path><path d="M900.39296 469.40672c-18.44224 0-30.35648-10.96704-30.35648-27.93984 0-135.88992-118.9888-246.44096-265.25184-246.44096-18.37568 0-30.24384-10.96704-30.24384-27.93984 0-17.03936 11.86816-28.05248 30.24384-28.05248 179.67616 0 325.85216 135.66976 325.85216 302.43328 0.00512 16.9728-11.86816 27.93984-30.24384 27.93984zM972.03712 699.56608l-5.76512-5.43232-130.1504-96.22528c-47.66208-36.92032-116.0704-33.58208-160.6144 7.7312l-43.392 40.27392c-53.76-31.616-99.33312-64.73728-138.68032-101.1968-38.76864-36.11648-73.96352-77.76768-107.65312-126.91968L425.472 376.3712c0.4096-0.36352 0.81408-0.73216 1.21344-1.1008 43.68384-40.33536 46.39232-108.44672 6.05696-152.12032L331.20256 104.53504c-40.2688-48.57856-116.18816-56.77056-168.92416-19.04128l-2.88256 2.30912c1.152-1.03936 2.19136-1.6128-0.4608 0a27.89888 27.89888 0 0 0-9.46176 9.23136L64.78336 175.72352c-102.80448 95.65184 1.38752 353.41824 222.11072 558.336 218.99264 203.4176 495.3344 301.38368 596.87936 210.69312l88.94976-82.61632c49.39264-45.91616 49.39264-119.8848-0.68608-162.57024z m-41.14944 117.5808l-88.3968 82.0992c-17.01376 14.88384-45.50144 18.02752-66.47296 18.02752-118.70208 0.00512-302.63808-93.84448-447.3088-228.224C162.304 534.55872 86.46656 369.37216 86.42048 281.26208c-0.01536-27.68896 6.784-48.06144 20.21376-60.55424l90.64448-84.21888 0.47616-0.76288 0.04096 0.04608 1.36192-1.09056c10.78272-7.35744 24.13568-11.392 37.76-11.392 19.08224 0 36.20864 7.45984 46.98624 20.45952l102.912 120.23296 0.78848 0.84992a45.90592 45.90592 0 0 1 12.22144 33.18272 45.89056 45.89056 0 0 1-14.82752 32.11264l-1.82784 1.62304-2.06848 2.10944-74.24 77.48096 28.23168 41.18528c36.57216 53.3504 74.66496 98.20672 116.4544 137.1392 42.43968 39.32672 91.27424 75.008 149.41696 109.19936l39.424 23.18336 76.90752-71.38816a63.63648 63.63648 0 0 1 43.41248-16.94208c13.94688 0 27.00288 4.40832 37.77536 12.7488l1.1008 0.83456 127.21152 94.04928 4.21376 3.968 1.16224 0.98816c12.91776 11.01312 15.86176 23.84384 16.0512 32.67584 0.3072 13.93664-5.84704 27.48416-17.33632 38.16448z" p-id="1359"></path></svg>